<svg width="229" height="228" viewBox="0 0 229 228" fill="none" xmlns="http://www.w3.org/2000/svg">
<path class="armor-class-outline-svg" d="M26.6441 21.5L27.2008 20.1248C27.7159 18.8523 28 17.4606 28 16C28 9.92487 23.0751 5 17 5C10.9249 5 6 9.92487 6 16C6 22.0751 10.9249 27 17 27C17.9511 27 18.8726 26.8795 19.7507 26.6535L21 26.332V30.0909L48.9193 58.5H53.5619L31.8451 86.0433L31.3214 86.0101C31.2153 86.0034 31.1081 86 31 86C28.2386 86 26 88.2386 26 91C26 93.7614 28.2386 96 31 96C33.7614 96 36 93.7614 36 91C36 90.7597 35.9831 90.5238 35.9506 90.2935L35.8701 89.7232L57.5185 72.7137L59.5973 74.4461L58.6492 75.212C39.9069 90.3521 28 113.088 28 138.5C28 152.672 31.7024 166.007 38.2259 177.658L38.5957 178.318L15.675 201.239L15.6402 201.268C14.7867 201.979 12.4843 204.594 10.9398 208.842C9.59825 212.531 8.15302 217.936 7.34088 221.212L18.401 219H18.5C19.7267 219 23.2504 218.213 26.2526 214.836C29.1536 211.572 41.067 200.345 48.4101 193.506L49.1427 192.824L49.8242 193.557C65.4754 210.399 88.2006 221 113.5 221C139.293 221 162.411 209.981 178.084 192.564L178.764 191.808L179.509 192.5C186.71 199.193 199.701 211.409 202.747 214.836C205.75 218.213 209.273 219 210.5 219H210.599L221.659 221.212C220.847 217.936 219.402 212.531 218.06 208.842C216.516 204.594 214.213 201.979 213.36 201.268L213.325 201.239L189.122 177.037L189.474 176.382C195.562 165.038 199 152.157 199 138.5C199 113.541 187.514 91.1639 169.347 76.0291L168.425 75.2609L171.481 72.7137L193.13 89.7232L193.049 90.2935C193.017 90.5238 193 90.7597 193 91C193 93.7614 195.239 96 198 96C200.761 96 203 93.7614 203 91C203 88.2386 200.761 86 198 86C197.947 86 197.895 86.0008 197.843 86.0024C197.788 86.0041 197.733 86.0067 197.678 86.0102L197.155 86.0432L175.438 58.5H180.081L208 30.0909V26.332L209.249 26.6535C210.127 26.8795 211.049 27 212 27C218.075 27 223 22.0751 223 16C223 9.92487 218.075 5 212 5C205.925 5 201 9.92487 201 16C201 17.4606 201.284 18.8523 201.799 20.1248L202.356 21.5H198.404L169.5 49.4243V54.1292L145.001 33.8006L143.777 34.8208L143.982 32.4332C143.994 32.2906 144 32.1462 144 32C144 29.2386 141.761 27 139 27C136.239 27 134 29.2386 134 32C134 34.7614 136.239 37 139 37C139.112 37 139.224 36.9963 139.334 36.9891L139.847 36.9554L156.282 56.9864L150.642 64.1657L149.926 63.8402C138.878 58.8122 126.531 56 113.5 56C101.042 56 89.2101 58.5703 78.5394 63.1895L77.832 63.4957L72.7176 56.9864L89.1533 36.9554L89.666 36.9891C89.7764 36.9963 89.8877 37 90 37C92.7614 37 95 34.7614 95 32C95 29.2386 92.7614 27 90 27C87.2386 27 85 29.2386 85 32C85 32.1462 85.0062 32.2906 85.0184 32.4332L85.2227 34.8208L83.9986 33.8006L59.5 54.1292V49.4244L30.5958 21.5H26.6441ZM31 20.5L60.5 49V52L84 32.5L84.0221 32.5184C84.0209 32.5048 84.0198 32.4912 84.0187 32.4775C84.0063 32.32 84 32.1607 84 32C84 31.7419 84.0163 31.4876 84.0479 31.2381C84.4222 28.2841 86.9444 26 90 26C93.3137 26 96 28.6863 96 32C96 35.3137 93.3137 38 90 38C89.8658 38 89.7325 37.9956 89.6005 37.9869L74 57L78.1421 62.2718C88.9365 57.599 100.904 55 113.5 55C126.676 55 139.164 57.8437 150.341 62.9301L155 57L139.4 37.9869C139.267 37.9956 139.134 38 139 38C135.686 38 133 35.3137 133 32C133 28.6863 135.686 26 139 26C142.056 26 144.578 28.2841 144.952 31.2381C144.984 31.4876 145 31.7419 145 32C145 32.1607 144.994 32.32 144.981 32.4775C144.98 32.4912 144.979 32.5048 144.978 32.5184L145 32.5L168.5 52V49L198 20.5H200.872C200.74 20.1736 200.622 19.84 200.518 19.5C200.181 18.3927 200 17.2175 200 16C200 9.37259 205.373 4 212 4C218.627 4 224 9.37259 224 16C224 22.6274 218.627 28 212 28C211.319 28 210.65 27.9432 210 27.8341C209.662 27.7773 209.328 27.7064 209 27.6219V30.5L180.5 59.5H177.5L197.615 85.0121C197.681 85.008 197.746 85.0049 197.812 85.0029C197.874 85.001 197.937 85 198 85C201.314 85 204 87.6863 204 91C204 94.3137 201.314 97 198 97C194.686 97 192 94.3137 192 91C192 90.7127 192.02 90.4302 192.059 90.1537L171.5 74L169.987 75.2608C170.247 75.4776 170.506 75.6958 170.763 75.9155C188.694 91.2147 200 113.583 200 138.5C200 152.327 196.518 165.37 190.355 176.855L214 200.5C215 201.333 217.4 204.1 219 208.5C220.424 212.415 221.953 218.204 222.742 221.429C222.84 221.828 222.927 222.188 223 222.5L210.5 220C209 220 205.2 219.1 202 215.5C199.094 212.23 186.894 200.74 179.56 193.914C179.31 193.681 179.066 193.454 178.828 193.232C178.605 193.48 178.38 193.727 178.154 193.972C162.31 211.168 139.216 222 113.5 222C87.9852 222 65.0507 211.336 49.2182 194.374C49.176 194.328 49.1338 194.283 49.0917 194.238C48.8524 194.461 48.6084 194.688 48.3601 194.92C40.9644 201.816 29.7678 212.386 27 215.5C23.8 219.1 20 220 18.5 220L6 222.5C6.07345 222.188 6.15985 221.828 6.25759 221.429C7.04699 218.204 8.57628 212.415 10 208.5C11.6 204.1 14 201.333 15 200.5L37.3534 178.147C30.7491 166.352 27 152.849 27 138.5C27 115.073 36.9939 93.9001 53.0907 78.7362C54.4298 77.4747 55.8111 76.2548 57.2324 75.0787C57.4576 74.8924 57.6838 74.7071 57.9109 74.523C57.9475 74.4933 57.9842 74.4637 58.0209 74.4341L57.5 74L36.9408 90.1537C36.9798 90.4302 37 90.7127 37 91C37 94.3137 34.3137 97 31 97C27.6863 97 25 94.3137 25 91C25 87.6863 27.6863 85 31 85C31.1292 85 31.2575 85.0041 31.3847 85.0121L51.5 59.5H48.5L20 30.5V27.6219C19.6719 27.7064 19.3383 27.7773 19 27.8341C18.3496 27.9432 17.6814 28 17 28C10.3726 28 5 22.6274 5 16C5 9.37259 10.3726 4 17 4C23.6274 4 29 9.37259 29 16C29 17.2175 28.8187 18.3927 28.4816 19.5C28.3781 19.84 28.2599 20.1736 28.1277 20.5H31Z"/>
<path class="armor-class-outline-svg" d="M26.6441 21.5L27.2008 20.1248C27.7159 18.8523 28 17.4606 28 16C28 9.92487 23.0751 5 17 5C10.9249 5 6 9.92487 6 16C6 22.0751 10.9249 27 17 27C17.9511 27 18.8726 26.8795 19.7507 26.6535L21 26.332V30.0909L48.9193 58.5H53.5619L31.8451 86.0433L31.3214 86.0101C31.2153 86.0034 31.1081 86 31 86C28.2386 86 26 88.2386 26 91C26 93.7614 28.2386 96 31 96C33.7614 96 36 93.7614 36 91C36 90.7597 35.9831 90.5238 35.9506 90.2935L35.8701 89.7232L57.5185 72.7137L59.5973 74.4461L58.6492 75.212C39.9069 90.3521 28 113.088 28 138.5C28 152.672 31.7024 166.007 38.2259 177.658L38.5957 178.318L15.675 201.239L15.6402 201.268C14.7867 201.979 12.4843 204.594 10.9398 208.842C9.59825 212.531 8.15302 217.936 7.34088 221.212L18.401 219H18.5C19.7267 219 23.2504 218.213 26.2526 214.836C29.1536 211.572 41.067 200.345 48.4101 193.506L49.1427 192.824L49.8242 193.557C65.4754 210.399 88.2006 221 113.5 221C139.293 221 162.411 209.981 178.084 192.564L178.764 191.808L179.509 192.5C186.71 199.193 199.701 211.409 202.747 214.836C205.75 218.213 209.273 219 210.5 219H210.599L221.659 221.212C220.847 217.936 219.402 212.531 218.06 208.842C216.516 204.594 214.213 201.979 213.36 201.268L213.325 201.239L189.122 177.037L189.474 176.382C195.562 165.038 199 152.157 199 138.5C199 113.541 187.514 91.1639 169.347 76.0291L168.425 75.2609L171.481 72.7137L193.13 89.7232L193.049 90.2935C193.017 90.5238 193 90.7597 193 91C193 93.7614 195.239 96 198 96C200.761 96 203 93.7614 203 91C203 88.2386 200.761 86 198 86C197.947 86 197.895 86.0008 197.843 86.0024C197.788 86.0041 197.733 86.0067 197.678 86.0102L197.155 86.0432L175.438 58.5H180.081L208 30.0909V26.332L209.249 26.6535C210.127 26.8795 211.049 27 212 27C218.075 27 223 22.0751 223 16C223 9.92487 218.075 5 212 5C205.925 5 201 9.92487 201 16C201 17.4606 201.284 18.8523 201.799 20.1248L202.356 21.5H198.404L169.5 49.4243V54.1292L145.001 33.8006L143.777 34.8208L143.982 32.4332C143.994 32.2906 144 32.1462 144 32C144 29.2386 141.761 27 139 27C136.239 27 134 29.2386 134 32C134 34.7614 136.239 37 139 37C139.112 37 139.224 36.9963 139.334 36.9891L139.847 36.9554L156.282 56.9864L150.642 64.1657L149.926 63.8402C138.878 58.8122 126.531 56 113.5 56C101.042 56 89.2101 58.5703 78.5394 63.1895L77.832 63.4957L72.7176 56.9864L89.1533 36.9554L89.666 36.9891C89.7764 36.9963 89.8877 37 90 37C92.7614 37 95 34.7614 95 32C95 29.2386 92.7614 27 90 27C87.2386 27 85 29.2386 85 32C85 32.1462 85.0062 32.2906 85.0184 32.4332L85.2227 34.8208L83.9986 33.8006L59.5 54.1292V49.4244L30.5958 21.5H26.6441ZM31 20.5L60.5 49V52L84 32.5L84.0221 32.5184C84.0209 32.5048 84.0198 32.4912 84.0187 32.4775C84.0063 32.32 84 32.1607 84 32C84 31.7419 84.0163 31.4876 84.0479 31.2381C84.4222 28.2841 86.9444 26 90 26C93.3137 26 96 28.6863 96 32C96 35.3137 93.3137 38 90 38C89.8658 38 89.7325 37.9956 89.6005 37.9869L74 57L78.1421 62.2718C88.9365 57.599 100.904 55 113.5 55C126.676 55 139.164 57.8437 150.341 62.9301L155 57L139.4 37.9869C139.267 37.9956 139.134 38 139 38C135.686 38 133 35.3137 133 32C133 28.6863 135.686 26 139 26C142.056 26 144.578 28.2841 144.952 31.2381C144.984 31.4876 145 31.7419 145 32C145 32.1607 144.994 32.32 144.981 32.4775C144.98 32.4912 144.979 32.5048 144.978 32.5184L145 32.5L168.5 52V49L198 20.5H200.872C200.74 20.1736 200.622 19.84 200.518 19.5C200.181 18.3927 200 17.2175 200 16C200 9.37259 205.373 4 212 4C218.627 4 224 9.37259 224 16C224 22.6274 218.627 28 212 28C211.319 28 210.65 27.9432 210 27.8341C209.662 27.7773 209.328 27.7064 209 27.6219V30.5L180.5 59.5H177.5L197.615 85.0121C197.681 85.008 197.746 85.0049 197.812 85.0029C197.874 85.001 197.937 85 198 85C201.314 85 204 87.6863 204 91C204 94.3137 201.314 97 198 97C194.686 97 192 94.3137 192 91C192 90.7127 192.02 90.4302 192.059 90.1537L171.5 74L169.987 75.2608C170.247 75.4776 170.506 75.6958 170.763 75.9155C188.694 91.2147 200 113.583 200 138.5C200 152.327 196.518 165.37 190.355 176.855L214 200.5C215 201.333 217.4 204.1 219 208.5C220.424 212.415 221.953 218.204 222.742 221.429C222.84 221.828 222.927 222.188 223 222.5L210.5 220C209 220 205.2 219.1 202 215.5C199.094 212.23 186.894 200.74 179.56 193.914C179.31 193.681 179.066 193.454 178.828 193.232C178.605 193.48 178.38 193.727 178.154 193.972C162.31 211.168 139.216 222 113.5 222C87.9852 222 65.0507 211.336 49.2182 194.374C49.176 194.328 49.1338 194.283 49.0917 194.238C48.8524 194.461 48.6084 194.688 48.3601 194.92C40.9644 201.816 29.7678 212.386 27 215.5C23.8 219.1 20 220 18.5 220L6 222.5C6.07345 222.188 6.15985 221.828 6.25759 221.429C7.04699 218.204 8.57628 212.415 10 208.5C11.6 204.1 14 201.333 15 200.5L37.3534 178.147C30.7491 166.352 27 152.849 27 138.5C27 115.073 36.9939 93.9001 53.0907 78.7362C54.4298 77.4747 55.8111 76.2548 57.2324 75.0787C57.4576 74.8924 57.6838 74.7071 57.9109 74.523C57.9475 74.4933 57.9842 74.4637 58.0209 74.4341L57.5 74L36.9408 90.1537C36.9798 90.4302 37 90.7127 37 91C37 94.3137 34.3137 97 31 97C27.6863 97 25 94.3137 25 91C25 87.6863 27.6863 85 31 85C31.1292 85 31.2575 85.0041 31.3847 85.0121L51.5 59.5H48.5L20 30.5V27.6219C19.6719 27.7064 19.3383 27.7773 19 27.8341C18.3496 27.9432 17.6814 28 17 28C10.3726 28 5 22.6274 5 16C5 9.37259 10.3726 4 17 4C23.6274 4 29 9.37259 29 16C29 17.2175 28.8187 18.3927 28.4816 19.5C28.3781 19.84 28.2599 20.1736 28.1277 20.5H31Z" 
      stroke=var(--clr-char-outline) stroke-width="3"/>
<path class="armor-class-box-svg" d="M186 138C186 176.66 153.317 208 113 208C72.6832 208 40 176.66 40 138C40 99.3401 72.6832 68 113 68C153.317 68 186 99.3401 186 138Z"/>
<path class="armor-class-box-svg" d="M113 210C154.341 210 188 177.843 188 138C188 98.1572 154.341 66 113 66C71.6586 66 38 98.1572 38 138C38 177.843 71.6586 210 113 210Z" 
      stroke=var(--clr-char-outline) stroke-width="5"/>
</svg>
