<svg class="potion-bottle-hp-svg" viewBox="0 0 196 326" fill="none" xmlns="http://www.w3.org/2000/svg">
    <path d="M87 178C87 181.866 83.866 185 80 185C76.134 185 73 181.866 73 178C73 174.134 76.134 171 80 171C83.866 171 87 174.134 87 178Z"
          fill=var(--clr-white)/>
    <path d="M40 167C40 170.866 36.866 174 33 174C29.134 174 26 170.866 26 167C26 163.134 29.134 160 33 160C36.866 160 40 163.134 40 167Z"
          fill=var(--clr-white)/>
    <path d="M54 192C54 195.866 50.866 199 47 199C43.134 199 40 195.866 40 192C40 188.134 43.134 185 47 185C50.866 185 54 188.134 54 192Z"
          fill=var(--clr-white)/>
    <path d="M158 14.2449V61.2449H38.0002V14.2449C38.0002 -0.755164 50.0002 2.24491 50.0002 2.24491H146C146 2.24491 158 -0.755164 158 14.2449Z"/>
    <path d="M194 285.245C194 318.045 160.333 324.578 143.5 323.745H52.5002C35.6669 324.578 2.0002 318.045 2.0002 285.245L2 213C8.5 226 22.5 226 22.5 226C22.5 226 42 230 60 215.5C78 201 82 198.5 99 198.5C113 198.5 121 202.5 133 213C145 223.5 152.5 228.5 163 228.5C173.5 228.5 179 226 194 215.5L194 285.245ZM130 275C130 278.866 126.866 282 123 282C119.134 282 116 278.866 116 275C116 271.134 119.134 268 123 268C126.866 268 130 271.134 130 275ZM112 299C112 302.866 108.866 306 105 306C101.134 306 98 302.866 98 299C98 295.134 101.134 292 105 292C108.866 292 112 295.134 112 299ZM147 292C147 295.866 143.866 299 140 299C136.134 299 133 295.866 133 292C133 288.134 136.134 285 140 285C143.866 285 147 288.134 147 292ZM170 282C170 285.866 166.866 289 163 289C159.134 289 156 285.866 156 282C156 278.134 159.134 275 163 275C166.866 275 170 278.134 170 282Z"
          fill=var(--clr-accent-dark)/>
    <path d="M41.5785 7.08995C40.699 8.51923 40.0002 10.7527 40.0002 14.2449V59.2449H156V14.2449C156 10.7527 155.301 8.51923 154.422 7.08995C153.557 5.68527 152.434 4.9187 151.298 4.49255C150.128 4.05402 148.916 3.96886 147.958 4.00879C147.487 4.02845 147.097 4.07753 146.833 4.11996C146.702 4.14109 146.603 4.1603 146.543 4.17284C146.513 4.1791 146.492 4.18367 146.482 4.18594L146.481 4.18617L146.478 4.18689L146.476 4.18753L146.246 4.24491H49.754L49.5246 4.18753C49.5242 4.18744 49.5231 4.18719 49.5223 4.18699C49.5212 4.18673 49.5197 4.18638 49.5178 4.18594C49.5079 4.18367 49.4876 4.1791 49.4575 4.17284C49.3973 4.1603 49.2987 4.14109 49.1672 4.11996C48.9032 4.07753 48.5135 4.02845 48.042 4.00879C47.0837 3.96886 45.8719 4.05402 44.7025 4.49255C43.566 4.9187 42.443 5.68527 41.5785 7.08995ZM160 58.767C160.858 58.6822 161.88 58.6833 162.934 58.9175C164.463 59.2574 166.061 60.0931 167.238 61.7939C168.388 63.4548 169 65.7424 169 68.7448V91.2448C169 92.5504 168.701 93.7323 168.021 94.7139C167.34 95.6963 166.403 96.2979 165.444 96.6617C163.648 97.3426 161.43 97.304 159.681 97.2437C159.396 97.2338 159.121 97.2234 158.856 97.2133C157.283 97.1534 156.064 97.107 155.149 97.2858C154.915 97.3315 154.754 97.3841 154.648 97.4311C154.579 97.4616 154.542 97.4858 154.526 97.4979C154.515 97.5318 154.5 97.6055 154.5 97.7448V103.745C154.5 103.747 154.5 103.749 154.5 103.752C154.497 103.811 154.485 104.066 155.282 104.526C156.155 105.029 157.537 105.487 159.475 105.978C160.518 106.242 161.701 106.508 162.981 106.797C166.233 107.53 170.112 108.405 173.91 109.732C179.276 111.607 184.834 114.482 189.044 119.47C193.285 124.495 196 131.474 196 141.245V285.245C196 302.505 187.061 312.956 176.006 318.871C165.095 324.709 152.11 326.165 143.451 325.745H52.5493C43.8902 326.165 30.9053 324.709 19.9942 318.871C8.9387 312.956 0.000204444 302.505 0.000204444 285.245L0 213L0.000204444 141.245C0.000216961 131.474 2.71515 124.495 6.95626 119.47C11.1665 114.482 16.7246 111.607 22.0905 109.732C25.8878 108.405 29.7669 107.53 33.019 106.797C34.2994 106.508 35.4825 106.242 36.5253 105.978C38.4637 105.487 39.8449 105.029 40.718 104.526C41.5149 104.066 41.5032 103.811 41.5005 103.752C41.5003 103.749 41.5002 103.747 41.5002 103.745V97.7448C41.5002 97.6056 41.4852 97.5318 41.4739 97.4979C41.4577 97.4858 41.4209 97.4616 41.3521 97.4311C41.246 97.3841 41.0849 97.3315 40.851 97.2858C39.9359 97.107 38.717 97.1534 37.1441 97.2133C36.8793 97.2234 36.6043 97.2338 36.3191 97.2437C34.57 97.304 32.3517 97.3426 30.5565 96.6617C29.5974 96.2979 28.6599 95.6963 27.9793 94.7139C27.2992 93.7323 27.0002 92.5504 27.0002 91.2448V68.7448C27.0002 65.7424 27.6122 63.4548 28.7621 61.7939C29.9396 60.0931 31.537 59.2574 33.0664 58.9175C34.1206 58.6833 35.1419 58.6822 36.0002 58.767V14.2449C36.0002 10.2371 36.8015 7.22054 38.1719 4.99356C39.5575 2.74198 41.4344 1.44606 43.298 0.747225C45.1286 0.0607632 46.9167 -0.0415685 48.2085 0.0122625C48.8619 0.0394915 49.4097 0.107605 49.802 0.170642C49.9672 0.197204 50.106 0.22305 50.2147 0.244914H145.786C145.894 0.22305 146.033 0.197204 146.198 0.170642C146.59 0.107605 147.138 0.0394915 147.792 0.0122625C149.083 -0.0415685 150.872 0.0607632 152.702 0.747225C154.566 1.44606 156.443 2.74198 157.828 4.99356C159.199 7.22054 160 10.2371 160 14.2449V58.767ZM41.4619 97.474C41.4626 97.4728 41.4668 97.4781 41.4722 97.493C41.4639 97.4824 41.4612 97.4751 41.4619 97.474ZM4.0002 219.499C7.11774 222.979 10.7726 225.037 13.9823 226.247C16.3023 227.121 18.4015 227.557 19.9266 227.777C20.6907 227.886 21.3154 227.942 21.7576 227.971C21.9789 227.985 22.1549 227.992 22.2803 227.996C22.2847 227.996 22.2891 227.996 22.2934 227.996C22.3193 228.001 22.3478 228.006 22.3787 228.011C22.5458 228.041 22.7848 228.08 23.0907 228.124C23.7022 228.211 24.5817 228.316 25.6877 228.394C27.8983 228.549 31.0229 228.597 34.7266 228.175C42.1374 227.33 51.8958 224.597 61.2547 217.058C70.3101 209.763 75.6033 205.696 80.701 203.384C85.6834 201.125 90.5891 200.5 99 200.5C105.792 200.5 111.004 201.467 115.944 203.643C120.919 205.834 125.739 209.304 131.683 214.505C143.69 225.011 151.691 230.5 163 230.5C168.45 230.5 172.729 229.845 177.594 227.778C181.674 226.046 186.119 223.34 192 219.318V285.245C192 300.785 184.105 310.001 174.119 315.344C164.009 320.753 151.773 322.152 143.599 321.747L143.549 321.745H52.4507L52.4013 321.747C44.2271 322.152 31.9908 320.753 21.8812 315.344C11.895 310.001 4.0002 300.785 4.0002 285.245V219.499ZM192 214.457V141.245C192 132.266 189.527 126.245 185.987 122.05C182.416 117.82 177.599 115.258 172.59 113.508C169.021 112.261 165.53 111.475 162.352 110.758C161.004 110.455 159.712 110.164 158.494 109.856C156.542 109.362 154.681 108.796 153.284 107.991C151.85 107.164 150.5 105.827 150.5 103.745V97.7448C150.5 96.5552 150.879 95.4622 151.73 94.6357C152.52 93.8694 153.518 93.529 154.382 93.3601C155.799 93.0832 157.578 93.156 159.096 93.218C159.345 93.2281 159.587 93.238 159.819 93.246C161.695 93.3107 163.101 93.2721 164.025 92.9217C164.425 92.7699 164.621 92.5981 164.733 92.4359C164.846 92.273 165 91.9393 165 91.2448V68.7448C165 66.2473 164.487 64.8474 163.949 64.0708C163.439 63.3341 162.787 62.9824 162.066 62.8223C161.299 62.6519 160.467 62.7074 159.77 62.8365C159.433 62.899 159.153 62.9738 158.964 63.0308C158.87 63.0592 158.8 63.0826 158.759 63.0971C158.738 63.1043 158.724 63.1093 158.718 63.1115L158.716 63.1125L158.375 63.2449H37.625L37.285 63.1127L37.2817 63.1115C37.2759 63.1093 37.2623 63.1043 37.2415 63.0971C37.1999 63.0826 37.13 63.0592 37.036 63.0308C36.8468 62.9738 36.5672 62.899 36.2298 62.8365C35.5328 62.7074 34.7009 62.6519 33.9341 62.8223C33.2135 62.9824 32.5609 63.3341 32.0509 64.0708C31.5132 64.8474 31.0002 66.2473 31.0002 68.7448V91.2448C31.0002 91.9393 31.1544 92.273 31.2673 92.4359C31.3796 92.5981 31.5749 92.7699 31.9752 92.9217C32.8988 93.2721 34.3055 93.3107 36.1813 93.246C36.4135 93.238 36.6555 93.2281 36.9046 93.218C38.4217 93.156 40.2013 93.0832 41.6181 93.3601C42.4826 93.529 43.4804 93.8694 44.27 94.6357C45.1217 95.4622 45.5002 96.5552 45.5002 97.7448V103.745C45.5002 105.827 44.1505 107.164 42.716 107.991C41.3196 108.796 39.4586 109.362 37.5064 109.856C36.2884 110.164 34.9965 110.455 33.6484 110.758C30.4698 111.475 26.9791 112.261 23.4099 113.508C18.4009 115.258 13.5839 117.82 10.0129 122.05C6.4728 126.245 4.00022 132.266 4.0002 141.245V212.518C6.9758 218.181 11.5132 221.042 15.3927 222.503C17.3852 223.254 19.1923 223.63 20.4953 223.817C21.1452 223.911 21.6651 223.956 22.0139 223.979C22.1881 223.99 22.3193 223.995 22.4021 223.998C22.4435 223.999 22.4728 224 22.4894 224L22.5 224H22.703L22.8986 224.04L22.9004 224.04L22.9019 224.041L22.9304 224.046C22.9583 224.052 23.0044 224.06 23.0681 224.071C23.1954 224.094 23.3929 224.126 23.6554 224.164C24.1806 224.238 24.9652 224.333 25.9685 224.403C27.9767 224.545 30.8521 224.591 34.2734 224.2C41.1126 223.42 50.1042 220.903 58.7453 213.942C67.6899 206.737 73.3967 202.304 79.049 199.741C84.8166 197.125 90.4109 196.5 99 196.5C106.208 196.5 111.996 197.533 117.556 199.982C123.081 202.416 128.261 206.196 134.317 211.495C146.31 221.989 153.309 226.5 163 226.5C168.05 226.5 171.771 225.905 176.031 224.097C180.212 222.321 184.969 219.352 192 214.457ZM154.538 97.4738C154.539 97.4742 154.537 97.4818 154.528 97.4929C154.533 97.4789 154.537 97.4734 154.538 97.4738Z"
          stroke=var(--clr-white) strokeWidth= 4/>
</svg>
